<?xml version="1.0" encoding="iso-8859-1"?>
<!-- Uploaded to: SVG Repo, www.svgrepo.com, Generator: SVG Repo Mixer Tools -->
<svg fill="#000000" height="800px" width="800px" version="1.1" id="Layer_1" xmlns="http://www.w3.org/2000/svg" xmlns:xlink="http://www.w3.org/1999/xlink" 
	 viewBox="0 0 512 512" xml:space="preserve">
<g>
	<g>
		<path d="M469.333,42.667h-92.444V64v21.333v21.333c0,35.29-28.71,64-64,64H199.111c-35.291,0-64-28.712-64-64V85.333V64V42.667
			H42.667c-11.782,0-21.333,9.552-21.333,21.333v426.667c0,11.78,9.552,21.333,21.333,21.333h426.667
			c11.782,0,21.333-9.553,21.333-21.333V64C490.667,52.218,481.115,42.667,469.333,42.667z M401.82,236.244L301.254,336.811
			c-4.001,4.002-9.427,6.251-15.084,6.251s-11.085-2.249-15.084-6.251l-45.255-45.255l-85.481,85.48
			c-4.166,4.167-9.626,6.251-15.084,6.251c-5.46,0-10.92-2.084-15.084-6.251c-8.331-8.33-8.331-21.837,0-30.17L210.746,246.3
			c4.001-4.001,9.426-6.248,15.084-6.248s11.085,2.247,15.086,6.248l45.254,45.257l85.481-85.483c8.33-8.33,21.838-8.33,30.17,0
			C410.152,214.406,410.152,227.913,401.82,236.244z"/>
	</g>
</g>
<g>
	<g>
		<path d="M312.889,0H199.111c-11.782,0-21.333,9.552-21.333,21.333v21.333V64v21.333v21.333c0,11.782,9.552,21.333,21.333,21.333
			h113.778c11.782,0,21.333-9.552,21.333-21.333V85.333V64V42.667V21.333C334.222,9.552,324.671,0,312.889,0z"/>
	</g>
</g>
</svg>